<svg id="Layer_1" enable-background="new 0 0 66 66" viewBox="0 0 66 66" xmlns="http://www.w3.org/2000/svg"><g><path d="m48.88 12.3h-4.67v-1.62c0-1.32-1.08-2.4-2.4-2.4h-2.21c-.27 0-.51-.18-.56-.41-.61-2.82-3.15-4.87-6.04-4.87s-5.43 2.05-6.04 4.87c-.05.23-.29.41-.56.41h-2.21c-1.32 0-2.4 1.08-2.4 2.4v1.62h-4.67c-3 0-5.44 2.44-5.44 5.44v39.82c0 3 2.44 5.44 5.44 5.44h31.77c3 0 5.44-2.44 5.44-5.44v-39.82c-.01-3-2.45-5.44-5.45-5.44zm-25.28-1.62c0-.32.26-.59.59-.59h2.21c1.12 0 2.1-.77 2.33-1.84.43-1.99 2.23-3.44 4.27-3.44s3.84 1.45 4.27 3.44c.23 1.06 1.21 1.84 2.33 1.84h2.21c.32 0 .59.26.59.59v5.06c0 .32-.26.59-.59.59h-17.62c-.32 0-.59-.26-.59-.59zm28.91 46.88c0 2-1.63 3.63-3.63 3.63h-31.76c-2 0-3.63-1.63-3.63-3.63v-39.82c0-2 1.63-3.63 3.63-3.63h4.67v1.62c0 1.32 1.08 2.4 2.4 2.4h17.62c1.32 0 2.4-1.08 2.4-2.4v-1.62h4.67c2 0 3.63 1.63 3.63 3.63z"/><path d="m33 12.55c1.74 0 3.16-1.42 3.16-3.16s-1.42-3.15-3.16-3.15-3.16 1.42-3.16 3.16 1.42 3.15 3.16 3.15zm0-4.5c.74 0 1.34.6 1.34 1.34s-.6 1.34-1.34 1.34-1.34-.6-1.34-1.34.6-1.34 1.34-1.34z"/><path d="m23.52 21.77h-3.66c-1.5 0-2.72 1.22-2.72 2.72v3.66c0 1.5 1.22 2.72 2.72 2.72h3.66c1.5 0 2.72-1.22 2.72-2.72v-3.66c0-1.5-1.22-2.72-2.72-2.72zm.9 6.38c0 .5-.41.91-.91.91h-3.66c-.5 0-.91-.41-.91-.91v-3.66c0-.5.41-.91.91-.91h3.66c.5 0 .91.41.91.91z"/><path d="m23.52 34.93h-3.66c-1.5 0-2.72 1.22-2.72 2.72v3.66c0 1.5 1.22 2.72 2.72 2.72h3.66c1.5 0 2.72-1.22 2.72-2.72v-3.66c0-1.5-1.22-2.72-2.72-2.72zm.9 6.38c0 .5-.41.91-.91.91h-3.66c-.5 0-.91-.41-.91-.91v-3.66c0-.5.41-.91.91-.91h3.66c.5 0 .91.41.91.91z"/><path d="m23.52 48.1h-3.66c-1.5 0-2.72 1.22-2.72 2.72v3.66c0 1.5 1.22 2.72 2.72 2.72h3.66c1.5 0 2.72-1.22 2.72-2.72v-3.66c0-1.5-1.22-2.72-2.72-2.72zm.9 6.38c0 .5-.41.91-.91.91h-3.66c-.5 0-.91-.41-.91-.91v-3.66c0-.5.41-.91.91-.91h3.66c.5 0 .91.41.91.91z"/><path d="m46.06 23.32h-15.31c-.5 0-.91.41-.91.91s.41.91.91.91h15.31c.5 0 .91-.41.91-.91s-.41-.91-.91-.91z"/><path d="m30.75 29.32h8.15c.5 0 .91-.41.91-.91s-.41-.91-.91-.91h-8.15c-.5 0-.91.41-.91.91s.41.91.91.91z"/><path d="m46.06 36.48h-15.31c-.5 0-.91.41-.91.91s.41.91.91.91h15.31c.5 0 .91-.41.91-.91s-.41-.91-.91-.91z"/><path d="m30.75 42.48h8.15c.5 0 .91-.41.91-.91s-.41-.91-.91-.91h-8.15c-.5 0-.91.41-.91.91s.41.91.91.91z"/><path d="m46.06 49.65h-15.31c-.5 0-.91.41-.91.91s.41.91.91.91h15.31c.5 0 .91-.41.91-.91s-.41-.91-.91-.91z"/><path d="m38.9 53.84h-8.15c-.5 0-.91.41-.91.91s.41.91.91.91h8.15c.5 0 .91-.41.91-.91s-.41-.91-.91-.91z"/></g></svg>